%TF.GenerationSoftware,KiCad,Pcbnew,9.0.3*%
%TF.CreationDate,2025-08-08T18:34:11-07:00*%
%TF.ProjectId,FerrisWheelOrganizer,46657272-6973-4576-9865-656c4f726761,rev?*%
%TF.SameCoordinates,Original*%
%TF.FileFunction,Copper,L1,Top*%
%TF.FilePolarity,Positive*%
%FSLAX46Y46*%
G04 Gerber Fmt 4.6, Leading zero omitted, Abs format (unit mm)*
G04 Created by KiCad (PCBNEW 9.0.3) date 2025-08-08 18:34:11*
%MOMM*%
%LPD*%
G01*
G04 APERTURE LIST*
%TA.AperFunction,ComponentPad*%
%ADD10R,1.600000X1.600000*%
%TD*%
%TA.AperFunction,ComponentPad*%
%ADD11O,1.600000X1.600000*%
%TD*%
%TA.AperFunction,ComponentPad*%
%ADD12C,2.000000*%
%TD*%
%TA.AperFunction,ComponentPad*%
%ADD13R,1.700000X1.700000*%
%TD*%
%TA.AperFunction,ComponentPad*%
%ADD14C,1.700000*%
%TD*%
%TA.AperFunction,Conductor*%
%ADD15C,0.200000*%
%TD*%
G04 APERTURE END LIST*
D10*
%TO.P,A1,1,D1/TX*%
%TO.N,unconnected-(A1-D1{slash}TX-Pad1)*%
X191897000Y-55118000D03*
D11*
%TO.P,A1,2,D0/RX*%
%TO.N,unconnected-(A1-D0{slash}RX-Pad2)*%
X189357000Y-55118000D03*
%TO.P,A1,3,~{RESET}*%
%TO.N,unconnected-(A1-~{RESET}-Pad3)*%
X186817000Y-55118000D03*
%TO.P,A1,4,GND*%
%TO.N,unconnected-(A1-GND-Pad4)*%
X184277000Y-55118000D03*
%TO.P,A1,5,D2*%
%TO.N,Net-(A1-D2)*%
X181737000Y-55118000D03*
%TO.P,A1,6,D3*%
%TO.N,Net-(A1-D3)*%
X179197000Y-55118000D03*
%TO.P,A1,7,D4*%
%TO.N,Net-(A1-D4)*%
X176657000Y-55118000D03*
%TO.P,A1,8,D5*%
%TO.N,unconnected-(A1-D5-Pad8)*%
X174117000Y-55118000D03*
%TO.P,A1,9,D6*%
%TO.N,unconnected-(A1-D6-Pad9)*%
X171577000Y-55118000D03*
%TO.P,A1,10,D7*%
%TO.N,unconnected-(A1-D7-Pad10)*%
X169037000Y-55118000D03*
%TO.P,A1,11,D8*%
%TO.N,Net-(A1-D8)*%
X166497000Y-55118000D03*
%TO.P,A1,12,D9*%
%TO.N,Net-(A1-D9)*%
X163957000Y-55118000D03*
%TO.P,A1,13,D10*%
%TO.N,Net-(A1-D10)*%
X161417000Y-55118000D03*
%TO.P,A1,14,D11*%
%TO.N,Net-(A1-D11)*%
X158877000Y-55118000D03*
%TO.P,A1,15,D12*%
%TO.N,unconnected-(A1-D12-Pad15)*%
X156337000Y-55118000D03*
%TO.P,A1,16,D13*%
%TO.N,unconnected-(A1-D13-Pad16)*%
X156337000Y-70358000D03*
%TO.P,A1,17,3V3*%
%TO.N,unconnected-(A1-3V3-Pad17)*%
X158877000Y-70358000D03*
%TO.P,A1,18,AREF*%
%TO.N,unconnected-(A1-AREF-Pad18)*%
X161417000Y-70358000D03*
%TO.P,A1,19,A0*%
%TO.N,unconnected-(A1-A0-Pad19)*%
X163957000Y-70358000D03*
%TO.P,A1,20,A1*%
%TO.N,unconnected-(A1-A1-Pad20)*%
X166497000Y-70358000D03*
%TO.P,A1,21,A2*%
%TO.N,unconnected-(A1-A2-Pad21)*%
X169037000Y-70358000D03*
%TO.P,A1,22,A3*%
%TO.N,unconnected-(A1-A3-Pad22)*%
X171577000Y-70358000D03*
%TO.P,A1,23,A4*%
%TO.N,unconnected-(A1-A4-Pad23)*%
X174117000Y-70358000D03*
%TO.P,A1,24,A5*%
%TO.N,unconnected-(A1-A5-Pad24)*%
X176657000Y-70358000D03*
%TO.P,A1,25,A6*%
%TO.N,unconnected-(A1-A6-Pad25)*%
X179197000Y-70358000D03*
%TO.P,A1,26,A7*%
%TO.N,unconnected-(A1-A7-Pad26)*%
X181737000Y-70358000D03*
%TO.P,A1,27,+5V*%
%TO.N,unconnected-(A1-+5V-Pad27)*%
X184277000Y-70358000D03*
%TO.P,A1,28,~{RESET}*%
%TO.N,unconnected-(A1-~{RESET}-Pad28)*%
X186817000Y-70358000D03*
%TO.P,A1,29,GND*%
%TO.N,Net-(A1-D3)*%
X189357000Y-70358000D03*
%TO.P,A1,30,VIN*%
%TO.N,Net-(A1-VIN)*%
X191897000Y-70358000D03*
%TD*%
D12*
%TO.P,SW3,1,1*%
%TO.N,Net-(A1-D4)*%
X183225000Y-89618750D03*
X183225000Y-96118750D03*
%TO.P,SW3,2,2*%
%TO.N,Net-(A1-D3)*%
X178725000Y-89618750D03*
X178725000Y-96118750D03*
%TD*%
D13*
%TO.P,BT1,1,+*%
%TO.N,Net-(A1-VIN)*%
X196977000Y-80772000D03*
D14*
%TO.P,BT1,2,-*%
%TO.N,Net-(A1-D3)*%
X194437000Y-80772000D03*
%TD*%
D12*
%TO.P,SW2,1,1*%
%TO.N,Net-(A1-D3)*%
X164175000Y-89618750D03*
X164175000Y-96118750D03*
%TO.P,SW2,2,2*%
X159675000Y-89618750D03*
X159675000Y-96118750D03*
%TD*%
D13*
%TO.P,J1,1,Pin_1*%
%TO.N,Net-(A1-D8)*%
X171577000Y-81915000D03*
D14*
%TO.P,J1,2,Pin_2*%
%TO.N,Net-(A1-D9)*%
X169037000Y-81915000D03*
%TO.P,J1,3,Pin_3*%
%TO.N,Net-(A1-D10)*%
X166497000Y-81915000D03*
%TO.P,J1,4,Pin_4*%
%TO.N,Net-(A1-D11)*%
X163957000Y-81915000D03*
%TO.P,J1,5,Pin_5*%
%TO.N,Net-(A1-D3)*%
X161417000Y-81915000D03*
%TD*%
D12*
%TO.P,SW1,1,1*%
%TO.N,Net-(A1-D2)*%
X199762500Y-89618750D03*
X199762500Y-96118750D03*
%TO.P,SW1,2,2*%
%TO.N,Net-(A1-D3)*%
X195262500Y-89618750D03*
X195262500Y-96118750D03*
%TD*%
D15*
%TO.N,Net-(A1-D4)*%
X183225000Y-89618750D02*
X183225000Y-95717750D01*
X183225000Y-89618750D02*
X183176000Y-89569750D01*
X183176000Y-61637000D02*
X176657000Y-55118000D01*
X183176000Y-89569750D02*
X183176000Y-61637000D01*
%TO.N,Net-(A1-D2)*%
X199762500Y-96118750D02*
X199762500Y-89618750D01*
X199762500Y-89618750D02*
X199762500Y-73143500D01*
X199762500Y-73143500D02*
X181737000Y-55118000D01*
X181737000Y-55118000D02*
X190458000Y-63839000D01*
%TO.N,Net-(A1-VIN)*%
X196977000Y-75438000D02*
X191897000Y-70358000D01*
X196977000Y-80772000D02*
X196977000Y-75438000D01*
%TO.N,Net-(A1-D3)*%
X193961500Y-97419750D02*
X180026000Y-97419750D01*
X194437000Y-80772000D02*
X189357000Y-75692000D01*
X178725000Y-89618750D02*
X164175000Y-89618750D01*
X159675000Y-96118750D02*
X159675000Y-89618750D01*
X178725000Y-89618750D02*
X178725000Y-96118750D01*
X189357000Y-65278000D02*
X179197000Y-55118000D01*
X180026000Y-97419750D02*
X178725000Y-96118750D01*
X195262500Y-89618750D02*
X195262500Y-81597500D01*
X164175000Y-89618750D02*
X159675000Y-89618750D01*
X159675000Y-89618750D02*
X159675000Y-83657000D01*
X159675000Y-96118750D02*
X164175000Y-96118750D01*
X195262500Y-81597500D02*
X194437000Y-80772000D01*
X159675000Y-83657000D02*
X161417000Y-81915000D01*
X195262500Y-96118750D02*
X195262500Y-89618750D01*
X189357000Y-70358000D02*
X189357000Y-65278000D01*
X195262500Y-96118750D02*
X193961500Y-97419750D01*
X189357000Y-75692000D02*
X189357000Y-70358000D01*
%TO.N,Net-(A1-D8)*%
X167936000Y-78274000D02*
X167936000Y-56557000D01*
X167936000Y-56557000D02*
X166497000Y-55118000D01*
X171577000Y-81915000D02*
X167936000Y-78274000D01*
%TO.N,Net-(A1-D9)*%
X165396000Y-78274000D02*
X165396000Y-56557000D01*
X169037000Y-81915000D02*
X165396000Y-78274000D01*
X165396000Y-56557000D02*
X163957000Y-55118000D01*
%TO.N,Net-(A1-D10)*%
X162814000Y-56515000D02*
X161417000Y-55118000D01*
X162814000Y-78232000D02*
X162814000Y-56515000D01*
X166497000Y-81915000D02*
X162814000Y-78232000D01*
%TO.N,Net-(A1-D11)*%
X157734000Y-56261000D02*
X158877000Y-55118000D01*
X163957000Y-81915000D02*
X157734000Y-75692000D01*
X157734000Y-75692000D02*
X157734000Y-56261000D01*
%TD*%
M02*
