%TF.GenerationSoftware,KiCad,Pcbnew,9.0.3*%
%TF.CreationDate,2025-08-08T18:34:11-07:00*%
%TF.ProjectId,FerrisWheelOrganizer,46657272-6973-4576-9865-656c4f726761,rev?*%
%TF.SameCoordinates,Original*%
%TF.FileFunction,Soldermask,Bot*%
%TF.FilePolarity,Negative*%
%FSLAX46Y46*%
G04 Gerber Fmt 4.6, Leading zero omitted, Abs format (unit mm)*
G04 Created by KiCad (PCBNEW 9.0.3) date 2025-08-08 18:34:11*
%MOMM*%
%LPD*%
G01*
G04 APERTURE LIST*
%ADD10R,1.600000X1.600000*%
%ADD11O,1.600000X1.600000*%
%ADD12C,2.000000*%
%ADD13R,1.700000X1.700000*%
%ADD14C,1.700000*%
G04 APERTURE END LIST*
D10*
%TO.C,A1*%
X191897000Y-55118000D03*
D11*
X189357000Y-55118000D03*
X186817000Y-55118000D03*
X184277000Y-55118000D03*
X181737000Y-55118000D03*
X179197000Y-55118000D03*
X176657000Y-55118000D03*
X174117000Y-55118000D03*
X171577000Y-55118000D03*
X169037000Y-55118000D03*
X166497000Y-55118000D03*
X163957000Y-55118000D03*
X161417000Y-55118000D03*
X158877000Y-55118000D03*
X156337000Y-55118000D03*
X156337000Y-70358000D03*
X158877000Y-70358000D03*
X161417000Y-70358000D03*
X163957000Y-70358000D03*
X166497000Y-70358000D03*
X169037000Y-70358000D03*
X171577000Y-70358000D03*
X174117000Y-70358000D03*
X176657000Y-70358000D03*
X179197000Y-70358000D03*
X181737000Y-70358000D03*
X184277000Y-70358000D03*
X186817000Y-70358000D03*
X189357000Y-70358000D03*
X191897000Y-70358000D03*
%TD*%
D12*
%TO.C,SW3*%
X183225000Y-89618750D03*
X183225000Y-96118750D03*
X178725000Y-89618750D03*
X178725000Y-96118750D03*
%TD*%
D13*
%TO.C,BT1*%
X196977000Y-80772000D03*
D14*
X194437000Y-80772000D03*
%TD*%
D12*
%TO.C,SW2*%
X164175000Y-89618750D03*
X164175000Y-96118750D03*
X159675000Y-89618750D03*
X159675000Y-96118750D03*
%TD*%
D13*
%TO.C,J1*%
X171577000Y-81915000D03*
D14*
X169037000Y-81915000D03*
X166497000Y-81915000D03*
X163957000Y-81915000D03*
X161417000Y-81915000D03*
%TD*%
D12*
%TO.C,SW1*%
X199762500Y-89618750D03*
X199762500Y-96118750D03*
X195262500Y-89618750D03*
X195262500Y-96118750D03*
%TD*%
M02*
