M48
; DRILL file {KiCad 9.0.3} date 2025-08-08T18:33:58-0700
; FORMAT={-:-/ absolute / metric / decimal}
; #@! TF.CreationDate,2025-08-08T18:33:58-07:00
; #@! TF.GenerationSoftware,Kicad,Pcbnew,9.0.3
; #@! TF.FileFunction,Plated,1,2,PTH
FMAT,2
METRIC
; #@! TA.AperFunction,Plated,PTH,ComponentDrill
T1C1.000
; #@! TA.AperFunction,Plated,PTH,ComponentDrill
T2C1.100
%
G90
G05
T1
X156.337Y-55.118
X156.337Y-70.358
X158.877Y-55.118
X158.877Y-70.358
X161.417Y-55.118
X161.417Y-70.358
X161.417Y-81.915
X163.957Y-55.118
X163.957Y-70.358
X163.957Y-81.915
X166.497Y-55.118
X166.497Y-70.358
X166.497Y-81.915
X169.037Y-55.118
X169.037Y-70.358
X169.037Y-81.915
X171.577Y-55.118
X171.577Y-70.358
X171.577Y-81.915
X174.117Y-55.118
X174.117Y-70.358
X176.657Y-55.118
X176.657Y-70.358
X179.197Y-55.118
X179.197Y-70.358
X181.737Y-55.118
X181.737Y-70.358
X184.277Y-55.118
X184.277Y-70.358
X186.817Y-55.118
X186.817Y-70.358
X189.357Y-55.118
X189.357Y-70.358
X191.897Y-55.118
X191.897Y-70.358
X194.437Y-80.772
X196.977Y-80.772
T2
X159.675Y-89.619
X159.675Y-96.119
X164.175Y-89.619
X164.175Y-96.119
X178.725Y-89.619
X178.725Y-96.119
X183.225Y-89.619
X183.225Y-96.119
X195.262Y-89.619
X195.262Y-96.119
X199.762Y-89.619
X199.762Y-96.119
M30
